<svg width="19" height="19" viewBox="0 0 19 19" xmlns="http://www.w3.org/2000/svg">
<path fill-rule="evenodd" clip-rule="evenodd" d="M9.5 19C14.7467 19 19 14.7467 19 9.5C19 4.25329 14.7467 0 9.5 0C4.25329 0 0 4.25329 0 9.5C0 14.7467 4.25329 19 9.5 19ZM9.5 17C13.6421 17 17 13.6421 17 9.5C17 5.35786 13.6421 2 9.5 2C5.35786 2 2 5.35786 2 9.5C2 13.6421 5.35786 17 9.5 17Z" />
<path d="M8 5C8 4.44772 8.44772 4 9 4C9.55228 4 10 4.44772 10 5V11H9C8.44772 11 8 10.5523 8 10V5Z" />
<path d="M8.61532 10.9281C8.10532 10.7161 7.8637 10.1309 8.07564 9.62086L8.45941 8.69743L13.0766 10.6162C13.5866 10.8282 13.8282 11.4134 13.6162 11.9234C13.4043 12.4334 12.819 12.675 12.309 12.4631L8.61532 10.9281Z" />
</svg>
