<svg width="11" height="11">
  <g clip-path="url(#delete-icon)">
    <path d="M7.244 3.844l-.785-.03-.17 4.648.785.028.17-4.646zM5.726 3.83h-.785v4.646h.785V3.83zM4.377 8.462l-.17-4.647-.785.029.17 4.646.785-.028z"/>
    <path d="M.66 1.892v.785h.819l.649 7.378a.393.393 0 00.391.358h5.615a.393.393 0 00.391-.358l.65-7.378h.831v-.785H.66zm7.115 7.736H2.879l-.612-6.95h6.12l-.612 6.95z"/>
    <path d="M6.616.387H4.051a.655.655 0 00-.655.654v1.244h.785V1.172h2.304v1.113h.786V1.04a.655.655 0 00-.655-.654z"/>
  </g>
  <defs>
    <clipPath id="delete-icon">
      <path transform="translate(.32 .387)" d="M0 0h10.027v10.027H0z"/>
    </clipPath>
  </defs>
</svg>