<svg width="14" height="14">
  <g clip-path="url(#edit-icon)">
    <path d="M1.556 12.06a.411.411 0 01-.411-.457l.316-2.879a.411.411 0 01.12-.242l6.728-6.728a1.316 1.316 0 011.863 0l1.278 1.279a1.316 1.316 0 010 1.863L4.728 11.62a.411.411 0 01-.243.119l-2.879.316-.05.005zm.711-3.105l-.246 2.229 2.229-.247 6.62-6.621a.492.492 0 000-.7L9.589 2.334a.494.494 0 00-.7 0l-6.62 6.622z"/>
    <path d="M10.192 5.977a.411.411 0 01-.292-.12L7.346 3.297a.413.413 0 11.584-.584l2.562 2.562a.412.412 0 01-.3.703zM7.348 5.275L4.147 8.477l.581.582L7.93 5.857l-.582-.582zM13.07 12.06H6.49a.411.411 0 010-.823h6.58a.411.411 0 110 .823z"/>
  </g>
  <defs>
    <clipPath id="edit-icon">
      <path transform="translate(.733 .133)" d="M0 0h13.16v13.16H0z"/>
    </clipPath>
  </defs>
</svg>