<svg width="21" height="22" viewBox="0 0 21 22" fill="none" xmlns="http://www.w3.org/2000/svg">
<g clip-path="url(#clip0_1070_2541)">
<path d="M1.77295 6.53324C2.40179 5.22282 3.29027 4.11525 4.41001 3.19431C5.92734 1.94069 7.6678 1.18609 9.61922 0.954836C11.9114 0.683016 14.0657 1.11712 16.0577 2.30988C16.5527 2.60604 17.0152 2.94278 17.4574 3.30791C17.5669 3.39716 17.5547 3.4499 17.4614 3.53916C16.5567 4.43981 15.652 5.34047 14.7554 6.24924C14.6499 6.35473 14.5931 6.34661 14.4795 6.26142C11.8506 4.23696 8.0167 4.78466 6.05716 7.46229C5.71231 7.93291 5.43238 8.44003 5.23764 8.99179C5.22141 9.04047 5.18896 9.0851 5.16462 9.13378C4.64126 8.7362 4.11385 8.33861 3.59455 7.93696C2.986 7.47041 2.37744 7.00385 1.77295 6.53324Z" fill="#E94335"/>
<path d="M5.16477 12.9393C5.33922 13.3247 5.48527 13.7263 5.70435 14.0874C6.62529 15.5966 7.93977 16.5662 9.67211 16.9111C11.2341 17.2235 12.7352 17.0125 14.1348 16.2295C14.1835 16.2052 14.2322 16.1808 14.2768 16.1565C14.3012 16.1808 14.3215 16.2092 14.3458 16.2295C15.3925 17.0409 16.4433 17.8523 17.49 18.6637C16.9869 19.1627 16.4149 19.5644 15.8063 19.9133C14.0415 20.9194 12.1307 21.3251 10.1184 21.171C7.61115 20.9762 5.44876 19.9863 3.66367 18.2012C2.88067 17.4182 2.2356 16.5338 1.76904 15.5236C2.20314 15.1909 2.63724 14.8623 3.07135 14.5296C3.76915 13.9982 4.46696 13.4707 5.16477 12.9393Z" fill="#34A853"/>
<path d="M17.4941 18.6637C16.4474 17.8523 15.3966 17.0409 14.3499 16.2295C14.3255 16.2092 14.3012 16.1808 14.2809 16.1565C14.642 15.8765 15.0112 15.6047 15.3073 15.2477C15.8023 14.6554 16.1309 13.986 16.3013 13.2354C16.3216 13.1421 16.3054 13.1097 16.212 13.1137C16.1634 13.1178 16.1187 13.1137 16.0701 13.1137C14.4148 13.1137 12.7555 13.1097 11.1002 13.1178C10.9176 13.1178 10.8771 13.0691 10.8811 12.8946C10.8892 11.7181 10.8892 10.5416 10.8811 9.36503C10.8811 9.21492 10.9217 9.17435 11.0718 9.17435C14.1065 9.1784 17.1411 9.1784 20.1798 9.17435C20.3096 9.17435 20.3624 9.2068 20.3948 9.34474C20.6423 10.4604 20.6261 11.5802 20.476 12.708C20.3543 13.6087 20.1352 14.4809 19.7985 15.3248C19.2994 16.5703 18.5651 17.6576 17.5995 18.5907C17.563 18.6191 17.5265 18.6394 17.4941 18.6637Z" fill="#4285F3"/>
<path d="M5.16454 12.9393C4.46674 13.4707 3.76893 13.9981 3.07112 14.5296C2.63702 14.8582 2.20292 15.1909 1.76882 15.5236C1.43209 14.8988 1.21301 14.2375 1.0345 13.5559C0.693712 12.2374 0.64097 10.8986 0.827593 9.55571C0.973646 8.50089 1.27792 7.48663 1.76882 6.53729C2.37737 7.00385 2.98187 7.47446 3.59042 7.94102C4.11378 8.34267 4.63713 8.74025 5.16049 9.13784C5.07123 9.57194 4.94547 9.99793 4.9049 10.4442C4.83187 11.2556 4.90895 12.0467 5.1402 12.8257C5.15643 12.8581 5.16049 12.8987 5.16454 12.9393Z" fill="#FABB06"/>
</g>
<defs>
<clipPath id="clip0_1070_2541">
<rect width="20.7719" height="20.7719" fill="white" transform="translate(0.0527344 0.614044)"/>
</clipPath>
</defs>
</svg>
