<svg width="76" height="77" viewBox="0 0 76 77" xmlns="http://www.w3.org/2000/svg">
<ellipse cx="38" cy="38.5" rx="38" ry="38.5" fill="white"/>
<path fill-rule="evenodd" clip-rule="evenodd" d="M38 71.523C56.0012 71.523 70.5941 56.7381 70.5941 38.5C70.5941 20.2619 56.0012 5.47699 38 5.47699C19.9987 5.47699 5.40585 20.2619 5.40585 38.5C5.40585 47.7079 9.12549 56.0355 15.1254 62.0248V42.0374C15.1254 38.0413 15.519 34.7717 16.3061 32.2288C17.1235 29.6555 18.5009 27.2639 20.4384 25.054C22.6181 22.6018 25.3427 20.6643 28.6123 19.2415C31.8818 17.8186 35.2573 17.1072 38.7387 17.1072C45.0356 17.1072 50.3183 19.2263 54.5869 23.4646C58.8857 27.7029 61.0351 32.9553 61.0351 39.2219C61.0351 45.3069 59.1127 50.2415 55.268 54.0256C51.7563 57.5071 46.4584 59.2478 39.3745 59.2478L36.559 59.2024V42.9456C40.2827 42.9456 42.1445 41.5227 42.1445 38.677C42.1445 36.0735 40.7216 34.7717 37.8759 34.7717C34.9999 34.7717 33.562 36.5579 33.562 40.1301V71.2195C35.0131 71.4196 36.4946 71.523 38 71.523Z" fill="#F79256"/>
</svg>
