<svg width="74" height="76" viewBox="0 0 74 76" fill="none" xmlns="http://www.w3.org/2000/svg">
<g filter="url(#filter0_d_2411_3375)">
<circle cx="37" cy="29" r="21" fill="white"/>
<circle cx="37" cy="29" r="21" fill="url(#paint0_radial_2411_3375)"/>
<circle cx="37" cy="29" r="21" fill="url(#paint1_linear_2411_3375)" fill-opacity="0.25"/>
<circle cx="37" cy="29" r="21" fill="url(#paint2_linear_2411_3375)" fill-opacity="0.2"/>
<path d="M37 8C25.402 8 16 17.402 16 29V67C27.598 67 37 57.598 37 46V28C37 20.8203 42.8203 15 50 15C51.0135 15 51.9998 15.116 52.9466 15.3354C49.0951 10.8449 43.3798 8 37 8Z" fill="white"/>
</g>
<defs>
<filter id="filter0_d_2411_3375" x="0" y="-4" width="74" height="91" filterUnits="userSpaceOnUse" color-interpolation-filters="sRGB">
<feFlood flood-opacity="0" result="BackgroundImageFix"/>
<feColorMatrix in="SourceAlpha" type="matrix" values="0 0 0 0 0 0 0 0 0 0 0 0 0 0 0 0 0 0 127 0" result="hardAlpha"/>
<feOffset dy="4"/>
<feGaussianBlur stdDeviation="8"/>
<feComposite in2="hardAlpha" operator="out"/>
<feColorMatrix type="matrix" values="0 0 0 0 0 0 0 0 0 0 0 0 0 0 0 0 0 0 0.2 0"/>
<feBlend mode="normal" in2="BackgroundImageFix" result="effect1_dropShadow_2411_3375"/>
<feBlend mode="normal" in="SourceGraphic" in2="effect1_dropShadow_2411_3375" result="shape"/>
</filter>
<radialGradient id="paint0_radial_2411_3375" cx="0" cy="0" r="1" gradientUnits="userSpaceOnUse" gradientTransform="translate(58 38) rotate(-127.278) scale(42.1011 51.3548)">
<stop offset="0.455959" stop-color="white"/>
<stop offset="0.608901" stop-color="#EBEBEB"/>
<stop offset="1"/>
</radialGradient>
<linearGradient id="paint1_linear_2411_3375" x1="14.5" y1="11" x2="56.5" y2="43.5" gradientUnits="userSpaceOnUse">
<stop stop-opacity="0.46"/>
<stop offset="0.889681" stop-opacity="0"/>
</linearGradient>
<linearGradient id="paint2_linear_2411_3375" x1="16" y1="35.5" x2="63.5" y2="33.5" gradientUnits="userSpaceOnUse">
<stop offset="0.177304" stop-opacity="0.81"/>
<stop offset="0.617688" stop-opacity="0"/>
</linearGradient>
</defs>
</svg>
