<svg width="76" height="77" viewBox="0 0 76 77" fill="none" xmlns="http://www.w3.org/2000/svg"><g clip-path="url(#a)"><path d="M0 22C0 9.85 9.85 0 22 0h32c12.15 0 22 9.85 22 22v33c0 12.15-9.85 22-22 22H22C9.85 77 0 67.15 0 55V22Z" fill="url(#b)"/><g filter="url(#c)"><path d="M17.166 29.391H38v17.72c0 11.506-9.328 20.833-20.834 20.833V29.391Z" fill="#fff"/><path d="M38 47.609H17.166v-17.72c0-11.506 9.328-20.833 20.834-20.833v38.553Z" fill="#fff"/><path d="M38 47.609h1.557c10.646 0 19.277-8.63 19.277-19.277 0-10.646-8.63-19.276-19.277-19.276H38v38.553Z" fill="url(#d)"/><path d="M38 47.609h1.557c10.646 0 19.277-8.63 19.277-19.277 0-10.646-8.63-19.276-19.277-19.276H38v38.553Z" fill="url(#e)" fill-opacity=".2"/><path d="M38 47.609h1.557c10.646 0 19.277-8.63 19.277-19.277 0-10.646-8.63-19.276-19.277-19.276H38v38.553Z" fill="url(#f)" fill-opacity=".2"/><path fill-rule="evenodd" clip-rule="evenodd" d="M38 28.968V9.056h1.557c6.333 0 11.953 3.054 15.467 7.769a13.224 13.224 0 0 0-3.844-.567c-7.137 0-12.949 5.652-13.173 12.71H38Z" fill="#fff"/></g></g><defs><linearGradient id="b" x1="0" y1="77" x2="75.141" y2="-2.433" gradientUnits="userSpaceOnUse"><stop offset=".349" stop-color="#FE6A3A"/><stop offset="1" stop-color="#FF0072"/></linearGradient><linearGradient id="d" x1="57.877" y1="40.83" x2="47.632" y2="10.728" gradientUnits="userSpaceOnUse"><stop offset=".672" stop-color="#fff"/><stop offset="1" stop-color="#CDCDCD"/></linearGradient><linearGradient id="e" x1="60.215" y1="35.852" x2="36.233" y2="22.646" gradientUnits="userSpaceOnUse"><stop offset=".359" stop-color="#fff"/><stop offset="1" stop-color="#424242"/></linearGradient><linearGradient id="f" x1="35.024" y1="34.475" x2="57.873" y2="37.888" gradientUnits="userSpaceOnUse"><stop stop-color="#CDCDCD"/><stop offset=".254" stop-color="#fff"/></linearGradient><clipPath id="a"><path fill="#fff" d="M0 0h76v77H0z"/></clipPath><filter id="c" x="-1.834" y="-5.944" width="79.667" height="96.889" filterUnits="userSpaceOnUse" color-interpolation-filters="sRGB"><feFlood flood-opacity="0" result="BackgroundImageFix"/><feColorMatrix in="SourceAlpha" values="0 0 0 0 0 0 0 0 0 0 0 0 0 0 0 0 0 0 127 0" result="hardAlpha"/><feOffset dy="4"/><feGaussianBlur stdDeviation="9.5"/><feComposite in2="hardAlpha" operator="out"/><feColorMatrix values="0 0 0 0 0 0 0 0 0 0 0 0 0 0 0 0 0 0 0.26 0"/><feBlend in2="BackgroundImageFix" result="effect1_dropShadow"/><feBlend in="SourceGraphic" in2="effect1_dropShadow" result="shape"/></filter></defs></svg>