<svg width="76" height="76" viewBox="0 0 76 76" fill="none" xmlns="http://www.w3.org/2000/svg">
<rect width="76" height="76" rx="22" fill="url(#paint0_linear_2405_3086)"/>
<g filter="url(#filter0_d_2405_3086)">
<circle cx="38" cy="29" r="21" fill="white"/>
<circle cx="38" cy="29" r="21" fill="url(#paint1_radial_2405_3086)"/>
<circle cx="38" cy="29" r="21" fill="url(#paint2_linear_2405_3086)" fill-opacity="0.25"/>
<circle cx="38" cy="29" r="21" fill="url(#paint3_linear_2405_3086)" fill-opacity="0.2"/>
<path d="M38 8C26.402 8 17 17.402 17 29V67C28.598 67 38 57.598 38 46V28C38 20.8203 43.8203 15 51 15C52.0135 15 52.9998 15.116 53.9466 15.3354C50.0951 10.8449 44.3798 8 38 8Z" fill="white"/>
</g>
<defs>
<filter id="filter0_d_2405_3086" x="1" y="-4" width="74" height="91" filterUnits="userSpaceOnUse" color-interpolation-filters="sRGB">
<feFlood flood-opacity="0" result="BackgroundImageFix"/>
<feColorMatrix in="SourceAlpha" type="matrix" values="0 0 0 0 0 0 0 0 0 0 0 0 0 0 0 0 0 0 127 0" result="hardAlpha"/>
<feOffset dy="4"/>
<feGaussianBlur stdDeviation="8"/>
<feComposite in2="hardAlpha" operator="out"/>
<feColorMatrix type="matrix" values="0 0 0 0 0 0 0 0 0 0 0 0 0 0 0 0 0 0 0.2 0"/>
<feBlend mode="normal" in2="BackgroundImageFix" result="effect1_dropShadow_2405_3086"/>
<feBlend mode="normal" in="SourceGraphic" in2="effect1_dropShadow_2405_3086" result="shape"/>
</filter>
<linearGradient id="paint0_linear_2405_3086" x1="1.47835e-07" y1="76" x2="74.1053" y2="-3.36842" gradientUnits="userSpaceOnUse">
<stop offset="0.3495" stop-color="#FE6A3A"/>
<stop offset="1" stop-color="#FF0072"/>
</linearGradient>
<radialGradient id="paint1_radial_2405_3086" cx="0" cy="0" r="1" gradientUnits="userSpaceOnUse" gradientTransform="translate(59 38) rotate(-127.278) scale(42.1011 51.3548)">
<stop offset="0.455959" stop-color="white"/>
<stop offset="0.608901" stop-color="#EBEBEB"/>
<stop offset="1"/>
</radialGradient>
<linearGradient id="paint2_linear_2405_3086" x1="15.5" y1="11" x2="57.5" y2="43.5" gradientUnits="userSpaceOnUse">
<stop stop-opacity="0.46"/>
<stop offset="0.889681" stop-opacity="0"/>
</linearGradient>
<linearGradient id="paint3_linear_2405_3086" x1="17" y1="35.5" x2="64.5" y2="33.5" gradientUnits="userSpaceOnUse">
<stop offset="0.177304" stop-opacity="0.81"/>
<stop offset="0.617688" stop-opacity="0"/>
</linearGradient>
</defs>
</svg>
