<svg width="16" height="16" viewBox="0 0 16 16" fill="none" xmlns="http://www.w3.org/2000/svg">
<rect width="16" height="16" rx="8" fill="#E25656"/>
<path d="M4.39627 13.0475C4.91741 13.4895 5.53458 13.8002 6.19722 13.9541C6.26063 13.9751 6.30329 13.8911 6.26063 13.8491C4.84132 12.4781 5.6212 10.9943 6.19722 10.3253C6.6079 9.84774 7.1928 9.06114 7.15014 8.00635C7.15014 7.90075 7.25681 7.81615 7.34096 7.87975C8.14632 8.30155 8.69685 9.22974 8.84501 9.98874C9.0785 9.75714 9.16324 9.39834 9.16324 9.08214C9.16324 8.97655 9.29006 8.89195 9.39614 8.97654C10.1588 9.67254 11.4721 12.0347 9.35347 13.8905C9.31139 13.9331 9.35347 14.0177 9.39614 13.9967C10.0385 13.8262 10.6427 13.5325 11.1758 13.1315C14.6289 10.4315 12.3829 5.64357 10.9209 4.06199C10.7307 3.87179 10.3917 3.99839 10.3917 4.27258C10.3704 4.84258 10.2009 5.47497 9.75644 5.89677C9.41747 4.46278 8.28795 2.8338 6.67782 2.0322C6.46626 1.9266 6.21203 2.0952 6.23337 2.3274C6.27485 4.28938 5.01081 5.53857 3.90914 7.16276C2.93429 8.61775 2.29901 11.2967 4.39627 13.0475Z" fill="white"/>
</svg>
