<svg width="29" height="23" fill="none" xmlns="http://www.w3.org/2000/svg">
  <rect x=".739" y="3.898" width="28.261" height="14.618" rx="7.309" fill="#E4D9FF"/>
  <g clip-path="url(#permanent-icon)">
    <path d="M21.033 6.187c-1.345 0-2.615.523-3.525 1.434L14.87 9.955l-.005-.004-1.415 1.246.01.01-2.518 2.232a3.154 3.154 0 01-2.236.92 3.163 3.163 0 01-3.166-3.152 3.163 3.163 0 013.166-3.152c.845 0 1.639.327 2.279.962l1.06.938 1.41-1.246-1.182-1.046a5.023 5.023 0 00-3.567-1.471c-2.783-.005-5.043 2.246-5.043 5.015 0 2.769 2.26 5.02 5.043 5.02 1.345 0 2.61-.523 3.525-1.43l2.639-2.339.004.005 1.41-1.251-.004-.005 2.517-2.227a3.14 3.14 0 012.236-.925 3.163 3.163 0 013.166 3.152 3.163 3.163 0 01-3.166 3.152c-.845 0-1.639-.327-2.278-.957l-1.06-.939-1.41 1.251 1.18 1.046a5.016 5.016 0 003.564 1.467c2.787 0 5.047-2.251 5.047-5.02 0-2.77-2.26-5.02-5.043-5.02z" fill="#fff"/>
  </g>
  <defs>
    <clipPath id="permanent-icon">
      <path fill="#fff" transform="translate(3.663)" d="M0 0h22.414v22.414H0z"/>
    </clipPath>
  </defs>
</svg>