<svg width="16" height="16" viewBox="0 0 16 16" fill="none" xmlns="http://www.w3.org/2000/svg">
<g clip-path="url(#clip0)">
<path d="M15.4286 8.57141H6.20457C5.89469 9.78895 4.65646 10.5248 3.43888 10.2149C2.63143 10.0094 2.00093 9.37886 1.79541 8.57141H0.571439C0.255837 8.57141 0 8.31557 0 7.99997C0 7.68437 0.255837 7.42856 0.571439 7.42856H1.79545C2.10532 6.21102 3.34356 5.47522 4.56114 5.78509C5.36859 5.99061 5.99909 6.62111 6.20461 7.42856H15.4286C15.7442 7.42856 16 7.6844 16 8C16 8.31561 15.7442 8.57141 15.4286 8.57141ZM4.00001 6.85713C3.36884 6.85713 2.85716 7.3688 2.85716 7.99997C2.85716 8.63114 3.36884 9.14282 4.00001 9.14282C4.63118 9.14282 5.14285 8.63114 5.14285 7.99997C5.14285 7.3688 4.63118 6.85713 4.00001 6.85713Z" fill="#00B2CA"/>
<path d="M15.4286 14.286H13.6331C13.3233 15.5036 12.085 16.2394 10.8675 15.9295C10.06 15.724 9.4295 15.0935 9.22399 14.286H0.571439C0.255837 14.286 0 14.0302 0 13.7146C0 13.399 0.255837 13.1432 0.571439 13.1432H9.22399C9.53387 11.9256 10.7721 11.1898 11.9897 11.4997C12.7971 11.7052 13.4276 12.3357 13.6331 13.1432H15.4286C15.7442 13.1432 16 13.399 16 13.7146C16 14.0302 15.7442 14.286 15.4286 14.286ZM11.4286 12.5718C10.7974 12.5718 10.2857 13.0834 10.2857 13.7146C10.2857 14.3458 10.7974 14.8574 11.4286 14.8574C12.0598 14.8574 12.5714 14.3458 12.5714 13.7146C12.5714 13.0834 12.0598 12.5718 11.4286 12.5718Z" fill="#00B2CA"/>
<path d="M15.4286 2.85714H12.4903C12.1804 4.07469 10.9422 4.81049 9.72458 4.50062C8.91713 4.2951 8.28662 3.6646 8.08111 2.85714H0.571439C0.255837 2.85714 0 2.60131 0 2.28574C0 1.97017 0.255837 1.7143 0.571439 1.7143H8.08114C8.39102 0.496754 9.62926 -0.239051 10.8468 0.0708265C11.6543 0.27634 12.2848 0.906843 12.4903 1.7143H15.4286C15.7442 1.7143 16 1.97014 16 2.28574C16 2.60134 15.7442 2.85714 15.4286 2.85714ZM10.2857 1.14286C9.65454 1.14286 9.14286 1.65453 9.14286 2.2857C9.14286 2.91688 9.65454 3.42855 10.2857 3.42855C10.9169 3.42855 11.4286 2.91688 11.4286 2.2857C11.4286 1.65453 10.9169 1.14286 10.2857 1.14286Z" fill="#00B2CA"/>
</g>
<defs>
<clipPath id="clip0">
<rect width="16" height="16" fill="white" transform="matrix(1 0 0 -1 0 16)"/>
</clipPath>
</defs>
</svg>
