<svg width="19" height="19" viewBox="0 0 19 19" xmlns="http://www.w3.org/2000/svg"><path d="M9.5 0C7.62108 0 5.78435 0.557165 4.22209 1.60104C2.65982 2.64491 1.44218 4.12861 0.723149 5.86451C0.00411624 7.6004 -0.184015 9.51054 0.182544 11.3534C0.549104 13.1962 1.45389 14.8889 2.78249 16.2175C4.11109 17.5461 5.80383 18.4509 7.64664 18.8175C9.48946 19.184 11.3996 18.9959 13.1355 18.2769C14.8714 17.5578 16.3551 16.3402 17.399 14.7779C18.4428 13.2156 19 11.3789 19 9.5C18.997 6.98135 17.9952 4.56672 16.2142 2.78577C14.4333 1.00482 12.0186 0.00297132 9.5 0ZM9.5 17.2727C7.89229 17.2354 6.3298 16.7332 5.00132 15.827C5.56829 15.1954 6.26188 14.6903 7.03697 14.3445C7.81206 13.9987 8.65128 13.82 9.5 13.82C10.3487 13.82 11.1879 13.9987 11.963 14.3445C12.7381 14.6903 13.4317 15.1954 13.9987 15.827C12.6813 16.7556 11.1118 17.26 9.5 17.2727ZM15.2812 14.6766C14.5537 13.8631 13.6628 13.2123 12.6666 12.7667C11.6704 12.3211 10.5913 12.0908 9.5 12.0908C8.40868 12.0908 7.32965 12.3211 6.33344 12.7667C5.33723 13.2123 4.44627 13.8631 3.71882 14.6766C2.71482 13.5595 2.05603 12.1753 1.82211 10.6916C1.58819 9.2079 1.78918 7.6882 2.40076 6.31632C3.01234 4.94444 4.00831 3.77914 5.26821 2.96138C6.52812 2.14361 7.99797 1.70841 9.5 1.70841C11.002 1.70841 12.4719 2.14361 13.7318 2.96138C14.9917 3.77914 15.9877 4.94444 16.5992 6.31632C17.2108 7.6882 17.4118 9.2079 17.1779 10.6916C16.944 12.1753 16.2852 13.5595 15.2812 14.6766ZM9.5 4.31818C8.81676 4.31818 8.14886 4.52079 7.58076 4.90038C7.01266 5.27997 6.56988 5.81949 6.30842 6.45073C6.04695 7.08196 5.97854 7.77656 6.11184 8.44667C6.24513 9.11679 6.57414 9.73233 7.05727 10.2155C7.5404 10.6986 8.15594 11.0276 8.82605 11.1609C9.49617 11.2942 10.1908 11.2258 10.822 10.9643C11.4532 10.7028 11.9928 10.2601 12.3723 9.69197C12.7519 9.12387 12.9545 8.45597 12.9545 7.77273C12.9545 6.85652 12.5906 5.97785 11.9427 5.32999C11.2949 4.68214 10.4162 4.31818 9.5 4.31818ZM9.5 9.5C9.15838 9.5 8.82443 9.3987 8.54038 9.2089C8.25633 9.01911 8.03494 8.74934 7.90421 8.43372C7.77348 8.11811 7.73927 7.77081 7.80592 7.43575C7.87257 7.10069 8.03707 6.79292 8.27864 6.55136C8.5202 6.3098 8.82797 6.14529 9.16303 6.07864C9.49809 6.012 9.84538 6.0462 10.161 6.17693C10.4766 6.30767 10.7464 6.52906 10.9362 6.8131C11.126 7.09715 11.2273 7.4311 11.2273 7.77273C11.2273 8.23083 11.0453 8.67016 10.7214 8.99409C10.3974 9.31802 9.9581 9.5 9.5 9.5Z" /></svg>
