<svg width="77" height="70" viewBox="0 0 77 70" fill="none" xmlns="http://www.w3.org/2000/svg">
<path fill-rule="evenodd" clip-rule="evenodd" d="M0.624974 28.5617C1.9155 16.4015 8.62261 6.14568 18.0531 0H59.4996C71.2199 7.67254 78.3344 21.6015 76.7384 36.6394C75.0032 52.99 63.475 65.8976 48.701 70H29.4725L33.298 33.9539C33.7406 29.783 35.6408 27.8756 38.9988 28.232C42.3214 28.5846 43.8215 30.2809 43.4989 33.3208C43.1463 36.6434 40.7961 38.074 36.4484 37.6126L34.4339 56.594L37.7157 56.9959C45.9868 57.8737 52.3883 56.4977 56.9199 52.8679C61.8779 48.926 64.7339 43.4026 65.4879 36.2978C66.2645 28.9809 64.4057 22.5819 59.9116 17.1006C55.4528 11.6231 49.5473 8.49421 42.1951 7.71394C38.1302 7.28255 34.1009 7.69491 30.1071 8.95115C26.1132 10.2073 22.6919 12.1319 19.843 14.7249C17.307 17.0651 15.4024 19.6869 14.1291 22.5902C12.895 25.4617 12.0303 29.2305 11.5351 33.8963L9.05844 57.2335C2.79512 49.497 -0.516006 39.3128 0.624974 28.5617Z" fill="#273469" fill-opacity="0.41"/>
</svg>
