<svg width="13" height="13" viewBox="0 0 13 13" xmlns="http://www.w3.org/2000/svg">
<path d="M7.66406 11.2949H4.86914V13H2.23242V11.2949H0.448242V9.15918H2.23242V8.49121H0.448242V6.35547H2.23242V0.203125H7.20703C8.16797 0.203125 9.01172 0.375977 9.73828 0.72168C10.4648 1.06738 11.0273 1.5625 11.4258 2.20703C11.8301 2.8457 12.0322 3.5752 12.0322 4.39551C12.0322 5.66113 11.6016 6.66016 10.7402 7.39258C9.88477 8.125 8.69238 8.49121 7.16309 8.49121H4.86914V9.15918H7.66406V11.2949ZM4.86914 6.35547H7.14551C8.62207 6.35547 9.36035 5.70801 9.36035 4.41309C9.36035 3.79785 9.17285 3.30273 8.79785 2.92773C8.42285 2.54688 7.9043 2.35352 7.24219 2.34766H4.86914V6.35547Z"/>
</svg>
